<?xml version="1.0" standalone="no"?>
<!DOCTYPE svg PUBLIC "-//W3C//DTD SVG 20010904//EN"
 "http://www.w3.org/TR/2001/REC-SVG-20010904/DTD/svg10.dtd">
<svg version="1.0" xmlns="http://www.w3.org/2000/svg"
 width="16.000000pt" height="16.000000pt" viewBox="0 0 16.000000 16.000000"
 preserveAspectRatio="xMidYMid meet">
<metadata>
Created by potrace 1.11, written by Peter Selinger 2001-2013
</metadata>
<g transform="translate(0.000000,16.000000) scale(0.002381,-0.002381)"
fill="#000000" stroke="none">
<path d="M495 6460 c-27 -4 -63 -15 -80 -24 -16 -9 -36 -16 -42 -16 -7 0 -13
-7 -13 -15 0 -8 -7 -15 -15 -15 -8 0 -15 -7 -15 -15 0 -8 -7 -15 -15 -15 -8 0
-27 -21 -42 -47 -15 -27 -31 -49 -35 -51 -4 -2 -8 -16 -8 -30 -1 -15 -7 -38
-15 -52 -12 -21 -14 -219 -15 -1337 0 -794 4 -1313 9 -1313 5 0 13 -15 17 -32
3 -18 15 -44 25 -57 11 -13 19 -30 19 -37 0 -8 6 -14 14 -14 8 0 16 -7 20 -15
3 -8 12 -15 20 -15 8 0 22 -8 32 -17 15 -15 37 -18 136 -18 103 0 121 2 129
18 6 9 14 17 19 17 13 0 50 37 50 50 0 6 6 10 13 10 6 0 22 18 34 40 l23 39 0
983 c0 918 5 1086 26 981 3 -17 12 -34 19 -37 7 -2 16 -23 20 -45 4 -23 10
-41 15 -41 4 0 11 -16 14 -35 4 -19 11 -35 15 -35 5 0 14 -20 20 -44 6 -25 15
-48 21 -51 5 -3 10 -20 10 -36 0 -17 6 -32 15 -35 8 -4 15 -16 15 -28 0 -11 9
-36 20 -54 11 -18 20 -43 20 -56 0 -13 7 -26 15 -30 8 -3 15 -16 15 -29 0 -12
9 -40 20 -62 11 -22 20 -44 20 -51 0 -6 7 -17 15 -24 8 -7 15 -25 15 -40 0
-15 7 -33 15 -40 8 -7 15 -25 15 -41 0 -15 6 -32 13 -36 7 -4 24 -43 37 -87
14 -43 31 -81 38 -83 6 -3 12 -17 12 -32 0 -14 7 -35 15 -45 8 -11 15 -30 15
-42 0 -13 7 -29 15 -38 8 -8 18 -28 21 -45 4 -17 13 -36 20 -42 8 -6 14 -26
14 -44 0 -20 6 -35 15 -39 9 -3 15 -18 15 -36 0 -16 4 -30 10 -30 5 0 14 -18
20 -39 6 -22 17 -52 25 -68 8 -15 15 -34 15 -41 0 -7 7 -20 15 -28 8 -9 15
-26 15 -39 0 -13 7 -30 15 -39 8 -8 15 -28 15 -45 0 -20 5 -31 14 -31 8 0 16
-16 20 -39 3 -21 13 -44 21 -51 8 -7 15 -25 15 -40 0 -16 7 -30 15 -34 9 -3
15 -18 15 -36 0 -20 5 -30 15 -30 8 0 15 -6 15 -13 0 -16 72 -87 88 -87 7 0
12 -4 12 -9 0 -5 25 -21 56 -36 53 -25 64 -26 176 -23 101 2 121 6 129 21 6 9
18 17 29 17 10 0 25 7 34 15 8 8 17 15 20 15 9 0 56 51 56 60 0 6 7 10 15 10
8 0 15 9 15 19 0 11 7 26 15 35 8 8 18 29 21 45 4 17 10 31 15 31 5 0 9 7 9
16 0 15 21 67 56 137 8 16 14 39 14 52 0 12 7 28 15 35 8 7 17 28 21 47 4 19
13 37 20 40 8 3 14 18 14 35 0 16 7 36 15 44 8 9 15 26 15 39 0 13 7 30 15 39
8 8 15 21 15 28 1 7 9 31 20 53 11 22 19 50 20 63 0 12 7 25 15 28 9 4 15 19
15 35 0 17 6 32 15 35 8 4 15 17 15 30 0 13 9 41 20 61 11 21 20 44 20 51 0 7
7 20 15 28 8 9 15 28 15 43 0 16 7 34 15 41 8 7 15 26 15 42 0 16 6 31 14 34
8 3 19 25 25 50 6 24 16 44 21 44 6 0 10 15 10 34 0 21 6 36 15 40 9 3 15 18
15 34 0 16 6 35 14 41 8 7 18 26 21 42 4 17 13 42 21 57 8 15 14 34 14 43 0 9
7 22 15 29 8 7 15 23 15 36 0 12 7 29 15 38 8 8 15 24 15 35 0 11 9 35 20 53
11 18 20 43 20 54 0 12 7 24 15 28 8 3 15 16 15 30 0 13 6 37 14 53 8 15 20
42 26 58 12 29 13 29 21 8 4 -12 7 -1098 7 -2415 -2 -2550 -4 -2439 44 -2494
10 -11 18 -26 18 -32 0 -7 7 -12 15 -12 8 0 15 -6 15 -14 0 -8 16 -20 35 -26
19 -6 35 -16 35 -21 0 -5 51 -9 115 -9 63 0 115 4 115 9 0 5 11 12 24 15 29 7
106 81 106 101 0 7 8 21 18 31 16 16 17 80 20 1011 1 641 6 993 12 993 6 0 10
-9 10 -21 0 -11 9 -32 20 -46 11 -14 20 -39 20 -54 0 -19 5 -29 15 -29 10 0
15 -10 15 -34 0 -18 6 -39 14 -45 8 -7 17 -30 21 -51 4 -21 13 -41 21 -44 8
-3 14 -17 14 -31 0 -15 7 -33 15 -41 8 -9 15 -29 15 -45 0 -17 6 -32 15 -35 8
-4 15 -14 15 -23 0 -9 9 -33 20 -54 11 -20 20 -48 20 -61 0 -13 7 -26 15 -30
8 -3 15 -16 15 -29 0 -12 9 -40 20 -62 11 -22 20 -47 20 -57 0 -10 5 -18 10
-18 6 0 10 -8 10 -18 0 -9 8 -33 18 -52 11 -19 22 -47 26 -63 3 -15 11 -27 16
-27 6 0 10 -15 10 -34 0 -19 6 -36 14 -39 7 -3 16 -24 20 -47 3 -22 13 -43 21
-46 9 -4 15 -19 15 -36 0 -16 7 -36 15 -44 8 -9 15 -26 15 -39 0 -13 6 -30 14
-37 7 -8 17 -29 21 -46 3 -18 10 -32 15 -32 4 0 10 -17 14 -39 3 -21 13 -44
21 -51 8 -7 15 -26 15 -42 0 -16 6 -31 15 -34 8 -4 15 -18 15 -33 0 -15 6 -35
14 -46 7 -11 16 -33 20 -49 4 -15 14 -35 21 -43 8 -8 15 -25 15 -37 0 -13 7
-29 15 -36 8 -7 15 -27 15 -45 0 -19 6 -35 14 -38 8 -3 18 -22 21 -41 4 -19
13 -40 21 -47 8 -6 14 -18 14 -25 0 -24 95 -124 117 -124 7 0 13 -7 13 -15 0
-8 8 -15 18 -15 10 0 27 -7 38 -15 27 -21 261 -21 288 0 11 8 28 15 38 15 10
0 18 4 18 9 0 4 20 21 45 37 25 15 45 33 45 39 0 7 9 20 20 30 11 10 20 24 20
30 0 7 7 18 15 25 8 7 15 22 15 34 0 12 7 31 15 42 8 10 15 29 15 41 0 12 7
28 15 37 8 8 15 21 15 28 0 7 9 30 20 51 11 20 20 48 20 61 0 13 7 26 15 30 9
3 15 18 15 34 0 16 7 35 15 42 8 7 18 30 21 51 4 22 10 39 14 39 5 0 12 14 15
32 4 17 14 38 21 46 8 7 14 24 14 37 0 13 7 30 15 39 8 8 15 28 15 44 0 17 6
32 15 36 8 3 18 24 21 46 4 23 13 44 20 47 8 3 14 20 14 38 0 20 6 35 15 39 8
3 15 15 15 26 0 11 9 37 20 57 11 21 20 45 20 54 0 9 7 22 15 29 8 7 15 25 15
40 0 15 7 33 15 40 8 7 15 25 15 41 0 15 6 32 13 36 8 4 24 42 38 83 13 41 29
79 36 83 7 4 13 21 13 36 0 16 7 34 15 41 8 7 15 25 15 40 0 15 7 33 15 40 8
7 17 27 21 46 3 18 12 38 20 45 8 6 14 25 14 41 0 16 6 31 15 34 8 4 15 16 15
28 0 12 9 39 20 61 11 22 20 47 20 57 0 10 4 18 8 18 5 0 13 17 18 37 5 21 14
38 19 38 7 0 12 -336 15 -977 4 -763 8 -980 18 -990 6 -6 12 -18 12 -25 0 -29
81 -123 105 -123 7 0 18 -7 25 -15 10 -12 37 -15 126 -15 63 0 114 4 114 9 0
5 14 12 30 16 17 4 30 11 30 16 0 5 13 21 29 37 16 15 33 40 36 54 4 15 13 29
21 32 12 5 14 204 14 1365 0 835 -4 1362 -9 1366 -6 3 -21 29 -35 58 -26 56
-96 132 -130 143 -11 4 -25 13 -31 19 -14 17 -100 28 -225 28 -126 0 -206 -11
-221 -29 -6 -8 -18 -14 -25 -14 -8 0 -14 -4 -14 -10 0 -5 -12 -16 -27 -24 -16
-9 -39 -31 -53 -51 -14 -19 -33 -45 -42 -57 -10 -11 -18 -29 -18 -40 0 -10 -4
-18 -9 -18 -5 0 -13 -15 -17 -32 -3 -18 -12 -42 -19 -53 -7 -11 -16 -35 -20
-52 -4 -18 -11 -33 -16 -33 -5 0 -9 -14 -9 -30 0 -18 -6 -33 -15 -36 -8 -4
-18 -24 -21 -46 -4 -22 -13 -42 -20 -45 -8 -3 -14 -20 -14 -38 0 -20 -6 -35
-15 -39 -8 -3 -15 -17 -15 -31 0 -14 -9 -42 -20 -62 -11 -21 -20 -44 -20 -51
0 -7 -7 -20 -15 -28 -8 -9 -15 -26 -15 -39 0 -13 -7 -30 -15 -39 -8 -8 -15
-26 -15 -41 0 -14 -7 -28 -15 -31 -8 -3 -17 -26 -21 -50 -3 -24 -10 -44 -15
-44 -5 0 -9 -8 -9 -18 0 -9 -8 -33 -19 -52 -10 -19 -22 -50 -25 -68 -4 -17
-12 -32 -17 -32 -5 0 -9 -14 -9 -30 0 -17 -6 -33 -14 -36 -8 -3 -17 -23 -21
-44 -4 -21 -13 -44 -21 -51 -8 -6 -14 -22 -14 -36 0 -13 -7 -31 -15 -39 -8 -9
-15 -24 -15 -35 0 -10 -9 -36 -20 -56 -11 -21 -20 -46 -20 -55 0 -10 -4 -18
-9 -18 -5 0 -12 -18 -16 -39 -4 -22 -13 -45 -21 -52 -8 -6 -14 -24 -14 -39 0
-16 -7 -30 -15 -34 -8 -3 -15 -17 -15 -30 0 -23 -17 -64 -56 -138 -8 -14 -14
-38 -14 -52 0 -15 -7 -29 -15 -32 -8 -4 -15 -18 -15 -34 0 -15 -7 -33 -15 -40
-8 -7 -18 -30 -21 -51 -4 -21 -13 -40 -20 -43 -8 -3 -14 -18 -14 -34 0 -16 -7
-35 -15 -42 -8 -7 -15 -22 -15 -34 0 -37 -14 -50 -39 -35 -11 8 -21 21 -21 29
0 8 -9 32 -20 53 -11 20 -20 45 -20 56 0 10 -7 24 -15 31 -8 7 -15 22 -15 34
0 12 -9 39 -20 61 -11 22 -20 47 -20 56 0 9 -7 19 -15 23 -8 3 -15 17 -15 31
0 15 -7 33 -15 41 -8 9 -15 29 -15 45 0 17 -6 32 -15 35 -8 4 -15 14 -15 23 0
9 -6 28 -14 42 -7 14 -16 43 -20 63 -4 20 -14 40 -22 43 -8 3 -14 18 -14 35 0
16 -7 36 -15 44 -8 9 -15 26 -15 39 0 13 -7 30 -15 39 -8 8 -15 21 -15 28 0 7
-9 30 -20 51 -11 20 -20 48 -20 61 0 13 -7 26 -15 30 -8 3 -15 16 -15 29 0 12
-9 40 -20 62 -11 22 -20 47 -20 56 0 9 -7 19 -15 23 -8 3 -15 18 -15 33 0 15
-7 37 -15 47 -8 11 -15 30 -15 42 0 12 -6 27 -14 33 -8 7 -18 27 -22 44 -3 18
-10 37 -14 42 -4 6 -11 24 -14 42 -4 17 -14 37 -22 44 -8 6 -14 21 -14 33 0
11 -7 30 -15 40 -8 11 -15 28 -15 38 0 16 -20 61 -56 130 -8 14 -14 37 -14 51
0 13 -7 30 -15 37 -8 7 -15 23 -15 35 0 12 -6 28 -14 34 -7 6 -16 29 -20 51
-3 22 -11 40 -16 40 -6 0 -10 8 -10 18 0 9 -9 34 -20 55 -11 20 -20 46 -20 56
0 11 -5 23 -10 26 -6 4 -16 21 -24 38 -7 18 -25 45 -40 60 -14 15 -26 31 -26
35 0 7 -23 21 -72 44 -16 7 -28 18 -28 25 0 8 -13 13 -34 13 -19 0 -38 6 -43
13 -4 6 -10 604 -13 1327 l-5 1315 -25 43 c-14 24 -30 52 -37 64 -17 31 -106
108 -125 108 -9 0 -18 5 -20 10 -5 17 -185 33 -287 26 -60 -4 -109 -14 -137
-26 -23 -11 -48 -20 -53 -20 -6 0 -11 -7 -11 -15 0 -8 -6 -15 -14 -15 -8 0
-16 -7 -20 -15 -3 -8 -12 -15 -21 -15 -8 0 -15 -5 -15 -10 0 -12 -15 -32 -42
-58 -10 -9 -18 -26 -18 -38 0 -12 -7 -27 -15 -34 -8 -7 -15 -25 -15 -41 0 -15
-7 -34 -15 -42 -7 -8 -17 -28 -21 -43 -4 -16 -13 -38 -20 -49 -8 -11 -14 -32
-14 -48 0 -15 -7 -30 -15 -33 -8 -4 -15 -19 -15 -35 0 -15 -7 -32 -16 -37 -8
-5 -18 -27 -21 -50 -4 -26 -11 -42 -19 -42 -9 0 -14 -12 -14 -35 0 -19 -4 -35
-9 -35 -5 0 -14 -22 -21 -50 -7 -27 -16 -50 -21 -50 -4 0 -11 -16 -15 -35 -3
-19 -10 -35 -15 -35 -5 0 -12 -18 -15 -41 -4 -22 -13 -43 -20 -46 -8 -3 -14
-20 -14 -38 0 -20 -6 -35 -15 -39 -9 -3 -15 -18 -15 -35 0 -16 -7 -36 -15 -45
-8 -8 -15 -21 -15 -28 0 -7 -9 -30 -20 -51 -11 -20 -20 -48 -20 -62 0 -14 -7
-28 -15 -31 -9 -4 -15 -19 -15 -39 0 -20 -6 -35 -15 -39 -8 -3 -18 -23 -21
-46 -4 -22 -10 -40 -15 -40 -5 0 -9 -8 -9 -18 0 -9 -8 -33 -19 -52 -10 -19
-22 -50 -25 -67 -4 -18 -12 -33 -17 -33 -5 0 -9 -14 -9 -30 0 -17 -6 -33 -14
-36 -8 -3 -17 -23 -21 -44 -4 -21 -13 -44 -21 -51 -8 -6 -14 -24 -14 -39 0
-16 -7 -30 -15 -34 -8 -3 -15 -17 -15 -31 0 -14 -9 -42 -20 -62 -11 -21 -20
-44 -20 -51 0 -7 -7 -20 -15 -28 -8 -9 -15 -28 -15 -43 0 -16 -7 -34 -15 -41
-8 -7 -15 -23 -15 -35 0 -12 -7 -28 -15 -35 -8 -7 -17 -28 -21 -48 -4 -19 -13
-47 -20 -61 -8 -14 -14 -32 -14 -38 0 -7 -7 -13 -15 -13 -8 0 -15 6 -15 14 0
8 -7 16 -15 20 -9 3 -15 18 -15 35 0 16 -7 36 -15 45 -8 8 -15 21 -15 28 0 7
-9 30 -20 51 -11 20 -20 48 -20 61 0 13 -7 26 -15 30 -9 3 -15 18 -15 34 0 16
-6 35 -14 41 -8 7 -17 30 -21 52 -4 21 -10 39 -15 39 -4 0 -11 16 -14 35 -4
19 -11 35 -15 35 -5 0 -14 20 -20 44 -6 25 -15 48 -21 51 -5 3 -10 20 -10 36
0 16 -6 32 -14 35 -7 3 -16 22 -20 43 -3 21 -13 44 -21 51 -8 7 -15 25 -15 40
0 16 -7 30 -15 34 -8 3 -15 17 -15 31 0 14 -9 42 -20 62 -11 21 -20 44 -20 51
0 7 -7 20 -15 28 -8 9 -15 28 -15 43 0 16 -7 34 -15 41 -8 7 -15 25 -15 40 0
15 -6 30 -14 33 -7 3 -17 22 -20 42 -4 21 -11 45 -16 54 -5 9 -18 39 -30 66
-12 28 -28 63 -36 78 -8 16 -14 41 -14 57 0 15 -6 30 -14 33 -7 3 -16 21 -20
40 -4 19 -13 40 -21 47 -8 7 -15 23 -15 35 0 13 -6 36 -14 52 -35 70 -56 122
-56 137 0 9 -4 16 -9 16 -5 0 -11 17 -15 39 -3 21 -13 44 -21 51 -8 7 -15 26
-15 42 0 16 -6 31 -15 34 -8 4 -15 17 -15 30 0 13 -9 41 -20 61 -11 21 -20 46
-20 55 0 10 -7 18 -15 18 -9 0 -15 9 -15 25 0 13 -6 28 -13 32 -8 4 -16 16
-20 26 -3 9 -13 17 -22 17 -8 0 -15 7 -15 15 0 8 -6 15 -13 15 -8 0 -22 9 -32
20 -10 11 -26 20 -36 20 -9 0 -19 5 -21 11 -8 23 -243 36 -353 19z"/>
</g>
</svg>
