<?xml version="1.0" standalone="no"?>
<!DOCTYPE svg PUBLIC "-//W3C//DTD SVG 20010904//EN"
 "http://www.w3.org/TR/2001/REC-SVG-20010904/DTD/svg10.dtd">
<svg version="1.0" xmlns="http://www.w3.org/2000/svg"
 width="1500.000000pt" height="1500.000000pt" viewBox="0 0 1500.000000 1500.000000"
 preserveAspectRatio="xMidYMid meet">
<metadata>
Created by potrace 1.11, written by Peter Selinger 2001-2013
</metadata>
<g transform="translate(0.000000,1500.000000) scale(0.100000,-0.100000)"
fill="#000000" stroke="none">
<path d="M7438 14004 c-14 -10 -37 -36 -49 -58 -26 -47 -22 196 -33 -1960 -3
-587 -6 -1070 -8 -1072 -2 -1 -126 -4 -275 -5 -272 -1 -386 -12 -432 -41 -34
-21 -54 -76 -54 -145 1 -77 27 -124 87 -155 l41 -22 845 0 845 -1 46 23 c83
41 117 158 73 249 -40 79 -96 90 -479 92 -153 1 -281 3 -282 5 -2 1 -2 568 -1
1259 l3 1256 131 -102 c72 -56 146 -114 165 -129 33 -26 407 -318 649 -508 67
-52 131 -103 143 -112 149 -117 195 -152 215 -159 31 -12 134 -11 166 1 14 5
74 47 133 93 181 142 826 646 858 671 218 172 311 243 314 240 5 -4 5 -2503 0
-2508 -2 -2 -143 -6 -314 -8 -273 -4 -316 -7 -364 -24 -73 -26 -94 -56 -97
-139 -4 -107 34 -167 120 -189 33 -9 281 -12 873 -11 781 1 830 2 866 19 68
33 99 95 92 186 -5 75 -31 111 -95 134 -48 17 -92 20 -360 24 -168 2 -306 5
-307 6 -1 1 -4 656 -7 1456 -4 800 -9 1478 -12 1505 -11 90 -61 145 -132 145
-97 0 -131 -21 -462 -289 -19 -16 -73 -59 -120 -95 -47 -37 -92 -73 -101 -80
-10 -8 -48 -38 -85 -67 -38 -30 -74 -58 -80 -64 -6 -5 -45 -37 -88 -70 -42
-33 -139 -109 -214 -169 -75 -59 -219 -173 -319 -253 l-182 -144 -173 137
c-95 76 -249 199 -343 273 -93 74 -224 178 -291 230 -66 53 -136 108 -155 123
-18 15 -148 117 -286 227 -139 110 -266 207 -283 216 -48 25 -149 30 -182 9z"/>
<path d="M4156 13873 c-384 -71 -670 -406 -806 -943 -16 -63 -32 -133 -35
-155 -2 -22 -7 -51 -10 -65 -3 -14 -8 -45 -10 -70 -3 -25 -8 -70 -11 -100 -3
-30 -7 -77 -10 -105 -5 -69 -5 -481 1 -530 2 -22 7 -69 10 -105 3 -36 8 -76
10 -90 2 -14 7 -46 10 -72 19 -160 93 -411 166 -567 96 -204 241 -383 389
-479 61 -40 187 -95 241 -106 13 -3 47 -9 74 -15 83 -17 298 -6 385 19 362
104 627 448 750 973 12 49 23 105 26 124 2 20 6 49 9 65 12 68 14 86 19 138
34 374 20 735 -38 1025 -108 536 -375 916 -721 1028 -127 42 -318 54 -449 30z
m316 -381 c91 -32 159 -86 230 -180 97 -130 176 -348 213 -582 13 -87 21 -159
31 -285 12 -153 6 -571 -11 -665 -2 -14 -7 -50 -10 -81 -3 -31 -7 -65 -9 -75
-11 -62 -17 -92 -22 -114 -3 -14 -8 -38 -10 -54 -19 -103 -100 -302 -162 -395
-131 -197 -336 -278 -538 -211 -208 70 -357 305 -433 685 -11 55 -23 127 -27
160 -3 33 -8 69 -10 80 -21 111 -21 669 1 805 2 14 6 48 10 75 52 467 252 805
505 854 68 13 178 5 242 -17z"/>
<path d="M7453 9261 c-34 -21 -57 -57 -67 -106 -6 -28 -12 -844 -17 -2332 l-2
-653 -31 0 c-17 0 -155 -2 -306 -3 -239 -3 -282 -6 -329 -23 -70 -25 -93 -56
-99 -133 -8 -106 35 -173 123 -196 33 -8 272 -11 873 -10 898 1 867 -1 919 56
59 65 50 216 -16 266 -42 32 -159 42 -496 43 l-230 0 0 1260 c0 693 1 1260 2
1260 0 0 37 -28 81 -62 43 -35 92 -73 108 -85 29 -23 54 -42 128 -101 23 -17
46 -36 51 -40 35 -26 638 -498 770 -601 l160 -126 85 -3 85 -4 90 69 c50 38
194 150 320 249 127 99 273 213 325 254 52 41 127 99 165 130 39 30 86 67 105
82 19 15 80 62 135 105 55 43 116 91 136 106 l36 27 0 -1260 0 -1260 -66 0
c-270 1 -571 -9 -606 -21 -79 -25 -116 -84 -108 -174 7 -94 52 -148 135 -163
24 -5 412 -8 863 -7 755 1 823 3 861 19 23 9 50 29 61 44 41 56 46 170 10 225
-40 62 -116 74 -471 76 -143 0 -262 3 -264 6 -3 3 -7 276 -9 608 -10 2335 -11
2371 -26 2407 -35 81 -100 105 -203 75 -32 -9 -72 -29 -89 -43 -17 -15 -43
-36 -59 -47 -15 -11 -38 -29 -50 -40 -12 -11 -94 -76 -181 -145 -280 -220
-370 -291 -390 -308 -11 -9 -74 -60 -140 -112 -66 -52 -124 -98 -130 -102 -12
-10 -162 -128 -219 -173 -21 -16 -46 -37 -56 -45 -154 -128 -253 -200 -264
-192 -6 5 -161 128 -344 273 -184 145 -346 273 -360 284 -21 15 -371 292 -452
358 -180 145 -351 275 -374 285 -15 7 -53 15 -85 18 -45 4 -62 1 -88 -15z"/>
<path d="M4172 9134 c-344 -60 -603 -313 -762 -744 -31 -85 -84 -282 -95 -355
-3 -22 -10 -67 -15 -100 -5 -33 -12 -91 -15 -130 -4 -38 -8 -86 -11 -105 -5
-47 -5 -462 0 -525 11 -129 28 -274 41 -335 3 -14 9 -50 15 -80 36 -200 138
-454 244 -615 192 -288 432 -422 755 -423 358 -1 639 193 831 575 27 55 62
135 79 179 28 78 85 292 95 364 3 19 8 46 10 59 3 13 8 49 11 80 4 31 8 67 11
81 7 46 16 244 16 385 1 648 -157 1158 -451 1450 -119 118 -285 211 -411 230
-24 4 -48 9 -53 12 -18 11 -227 9 -295 -3z m303 -385 c79 -29 132 -66 194
-136 109 -123 212 -385 247 -633 4 -30 8 -57 9 -60 1 -5 9 -83 21 -201 6 -64
6 -493 0 -569 -9 -110 -17 -184 -21 -210 -3 -14 -7 -41 -10 -60 -3 -19 -8 -46
-10 -60 -3 -14 -7 -36 -10 -49 -52 -275 -180 -513 -327 -610 -78 -52 -148 -73
-241 -73 -224 -1 -383 137 -500 433 -27 68 -72 234 -82 304 -4 22 -8 47 -10
55 -2 8 -7 42 -11 75 -3 33 -8 67 -9 75 -23 122 -23 608 0 805 17 145 18 155
45 280 76 356 242 595 450 648 76 20 191 14 265 -14z"/>
<path d="M4193 4394 c-301 -51 -526 -237 -694 -574 -63 -125 -130 -322 -155
-454 -2 -12 -6 -32 -9 -46 -2 -14 -7 -38 -9 -55 -2 -16 -7 -48 -11 -70 -23
-154 -30 -268 -30 -510 1 -258 8 -359 40 -555 87 -540 336 -943 668 -1083 241
-101 509 -92 740 24 239 121 442 401 552 761 14 48 28 98 31 110 32 138 58
297 70 433 9 93 10 489 3 583 -25 301 -68 516 -144 712 -181 471 -485 725
-880 734 -55 2 -132 -3 -172 -10z m285 -379 c190 -65 333 -266 416 -590 24
-94 49 -257 63 -405 17 -183 7 -645 -17 -805 -5 -33 -12 -80 -15 -105 -20
-140 -71 -304 -138 -440 -43 -86 -65 -119 -127 -180 -127 -128 -254 -168 -420
-132 -148 32 -264 138 -357 327 -47 96 -97 250 -117 360 -40 216 -50 338 -50
635 -1 220 5 359 19 460 2 14 6 48 10 75 30 226 112 465 206 601 73 106 196
194 299 212 64 12 172 6 228 -13z"/>
<path d="M7475 4349 c-77 -21 -149 -40 -160 -43 -12 -2 -70 -18 -130 -35 -61
-16 -176 -48 -258 -70 -81 -22 -163 -48 -182 -57 -50 -23 -94 -72 -102 -113
-17 -80 6 -137 68 -177 55 -34 132 -34 269 1 58 15 116 29 130 32 14 2 70 16
125 30 137 34 145 35 146 21 3 -76 0 -2500 -4 -2504 -3 -3 -139 -7 -303 -8
-374 -4 -421 -13 -458 -89 -28 -60 -17 -170 22 -214 9 -11 33 -29 52 -39 34
-18 70 -19 870 -20 902 -1 895 -2 951 52 51 49 61 176 17 239 -41 61 -116 72
-474 71 l-264 -1 0 1428 c0 1539 2 1466 -51 1516 -33 31 -92 26 -264 -20z"/>
</g>
</svg>
